<svg xmlns="http://www.w3.org/2000/svg" width="28" height="28" viewBox="0 0 28 28"><path d="M14.563.563a14,14,0,1,0,14,14A14,14,0,0,0,14.563.563Zm0,6.21a2.371,2.371,0,1,1-2.371,2.371A2.371,2.371,0,0,1,14.563,6.772Zm3.161,14.339a.677.677,0,0,1-.677.677H12.079a.677.677,0,0,1-.677-.677V19.756a.677.677,0,0,1,.677-.677h.677V15.466h-.677a.677.677,0,0,1-.677-.677V13.433a.677.677,0,0,1,.677-.677h3.613a.677.677,0,0,1,.677.677v5.645h.677a.677.677,0,0,1,.677.677Z" transform="translate(-0.563 -0.563)" fill="#94f24d"/></svg>