<svg xmlns="http://www.w3.org/2000/svg" width="40.5" height="36" viewBox="0 0 40.5 36"><path d="M33.75,13.5H25.714L18.324.567A1.126,1.126,0,0,0,17.347,0H12.741A1.125,1.125,0,0,0,11.66,1.434L15.107,13.5H7.875L4.838,9.45a1.125,1.125,0,0,0-.9-.45H1.126A1.125,1.125,0,0,0,.034,10.4L2.25,18,.034,25.6A1.125,1.125,0,0,0,1.126,27H3.938a1.124,1.124,0,0,0,.9-.45L7.875,22.5h7.232L11.66,34.566A1.125,1.125,0,0,0,12.741,36h4.605a1.126,1.126,0,0,0,.977-.567L25.714,22.5H33.75c2.486,0,6.75-2.014,6.75-4.5S36.236,13.5,33.75,13.5Z" transform="translate(0)" fill="#9e2c2c"/></svg>