<svg xmlns="http://www.w3.org/2000/svg" width="24.999" height="19.998" viewBox="0 0 24.999 19.998"><path d="M24.758,17.895l-2.148-1.66A1.231,1.231,0,0,0,23.75,15.02V4.98a1.252,1.252,0,0,0-1.969-1.008L17.5,6.926v5.359l-1.25-.965V4.367A1.867,1.867,0,0,0,14.383,2.5H4.84L1.777.133A.627.627,0,0,0,.9.242l-.766.984A.622.622,0,0,0,.242,2.1L1.668,3.2,16.25,14.477l6.973,5.391a.627.627,0,0,0,.879-.109l.766-.988A.619.619,0,0,0,24.758,17.895ZM1.25,15.633A1.867,1.867,0,0,0,3.117,17.5H14.383a1.853,1.853,0,0,0,1.156-.41L1.25,6.043Z" transform="translate(-0.001 -0.001)" fill="#fff"/></svg>