<svg xmlns="http://www.w3.org/2000/svg" xmlns:xlink="http://www.w3.org/1999/xlink" width="96.33" height="151.619" viewBox="0 0 96.33 151.619"><defs><filter id="a" x="0" y="0" width="96.33" height="151.619" filterUnits="userSpaceOnUse"><feOffset dy="2" input="SourceAlpha"/><feGaussianBlur stdDeviation="8" result="b"/><feFlood flood-opacity="0.4"/><feComposite operator="in" in2="b"/><feComposite in="SourceGraphic"/></filter></defs><g transform="translate(-310.815 -561.382)"><g transform="matrix(1, 0, 0, 1, 310.82, 561.38)" filter="url(#a)"><path d="M29.165,2C15.805,2,5,18.216,5,38.266c0,27.2,24.165,67.352,24.165,67.352S53.33,65.466,53.33,38.266C53.33,18.216,42.525,2,29.165,2Zm0,49.219c-4.764,0-8.63-5.8-8.63-12.952s3.866-12.952,8.63-12.952,8.63,5.8,8.63,12.952S33.929,51.219,29.165,51.219Z" transform="translate(19 20)" fill="#3ac994"/></g><path d="M46.521,2A41.49,41.49,0,0,0,5,43.521c0,31.14,41.521,77.11,41.521,77.11s41.521-45.969,41.521-77.11A41.49,41.49,0,0,0,46.521,2Zm0,56.349A14.829,14.829,0,1,1,61.349,43.521,14.834,14.834,0,0,1,46.521,58.349Z" transform="translate(312.46 565)" fill="#3ac994"/><ellipse cx="17.098" cy="16.559" rx="17.098" ry="16.559" transform="translate(341.882 593.656)" fill="#f0f7fd"/><ellipse cx="14.941" cy="12.941" rx="14.941" ry="12.941" transform="translate(344.039 600.941)" fill="#fff"/></g></svg>