<svg xmlns="http://www.w3.org/2000/svg" width="265.161" height="304.049" viewBox="0 0 265.161 304.049"><g transform="translate(-0.133 -0.1)"><path d="M215.8,217.8c9.9-17.1,15.3-36.8,6.3-54.8-4.3-7.7-7.4-15.6-10.6-23.4-5.2,5.5-11.4,10.2-16.8,9.4,0,0-7.8-1.5-13.2-5.2,0,0-28.1-17.4-51.7-14.4l10.9-8.5h0a64.676,64.676,0,1,0-94.3-74,2.651,2.651,0,0,0-.5.6l8.8,8S51.3,73.7,65.5,83.3c0,0,14.1,10.6-2,18.6l-9.6,4.2c.3.1.6.1,1,.2,0,0,6,22.3-33.1,60.9,0,0-54.8,46.3,9.9,108.3,0,0,25.4,25.7,86.9,28.5,10.2-6.1,20.3-12.6,30.8-18.8C178.1,269,199.6,245.7,215.8,217.8Z" fill="#ffd139"/><path d="M244.3,117.7s-11.5-7.9-21.7,7.3a99.254,99.254,0,0,1-11.2,14.5c3.3,7.8,6.3,15.7,10.6,23.4,9,18,3.6,37.7-6.3,54.8-16.2,27.9-37.7,51.2-66.5,67.4-10.6,6.2-20.6,12.7-30.8,18.8a256.621,256.621,0,0,0,37.5-1.1s70.4-7.3,95.5-61.8C251.5,241.1,286.9,160.3,244.3,117.7Z" fill="#e5b721"/><circle cx="13.6" cy="13.6" r="13.6" transform="translate(69.1 35.1)" fill="#fff"/><path d="M87.9,47.5a8.1,8.1,0,1,1-8.1-8.1A8.066,8.066,0,0,1,87.9,47.5Z" fill="#231f20"/><path d="M65.4,100.9c13-7.9.1-17.6.1-17.6C51.4,73.6,54.7,55.5,54.7,55.5l-8.8-8c-3.7,4.1-8.4,8.9-12.1,10.2,0,0-8.3,3.1-21.3-4.3,0,0-6.6-4.4-9.6.4C10.1,65.7,30.6,94.2,65.4,100.9Z" fill="#fea230"/><path d="M2.9,53.9a4.54,4.54,0,0,0-.6,1.4S-.4,68.1,3.8,74.8c0,0,10,23.3,50.1,31.4l9.6-4.2c.7-.4,1.3-.7,1.9-1.1C30.6,94.2,10.1,65.7,2.9,53.9Z" fill="#e68c16"/></g></svg>