<svg xmlns="http://www.w3.org/2000/svg" width="45" height="36" viewBox="0 0 45 36"><path d="M44.565,32.21l-11.1-8.575A12.083,12.083,0,0,0,34.875,18V14.625A1.125,1.125,0,0,0,33.75,13.5H32.625A1.125,1.125,0,0,0,31.5,14.625V18a8.745,8.745,0,0,1-.754,3.53l-1.867-1.443A6.619,6.619,0,0,0,29.251,18V6.75a6.75,6.75,0,1,0-13.5,0V9.939L3.2.237a1.126,1.126,0,0,0-1.579.2L.237,2.211a1.125,1.125,0,0,0,.2,1.579L41.8,35.763a1.125,1.125,0,0,0,1.579-.2l1.381-1.777a1.126,1.126,0,0,0-.2-1.579Zm-16.44.415H24.188V30.251a12.243,12.243,0,0,0,2.367-.584l-3.523-2.723a9.067,9.067,0,0,1-1.431.014A9.106,9.106,0,0,1,13.783,19.8l-3.658-2.829v.482A12.762,12.762,0,0,0,20.813,30.224v2.4H16.875A1.125,1.125,0,0,0,15.75,33.75v1.125A1.125,1.125,0,0,0,16.875,36h11.25a1.125,1.125,0,0,0,1.125-1.125V33.75A1.125,1.125,0,0,0,28.125,32.625Z" transform="translate(0)" fill="#9e2c2c"/></svg>