<svg xmlns="http://www.w3.org/2000/svg" xmlns:xlink="http://www.w3.org/1999/xlink" width="170.581" height="146" viewBox="0 0 170.581 146"><defs><filter id="a" x="0" y="37.355" width="170.581" height="108.645" filterUnits="userSpaceOnUse"><feOffset dy="2" input="SourceAlpha"/><feGaussianBlur stdDeviation="8" result="b"/><feFlood flood-opacity="0.4"/><feComposite operator="in" in2="b"/><feComposite in="SourceGraphic"/></filter></defs><g transform="translate(17.548)"><g transform="matrix(1, 0, 0, 1, -17.55, 0)" filter="url(#a)"><rect width="122.581" height="60.645" rx="6" transform="translate(24 59.35)" fill="#fa565a"/></g><rect width="135.484" height="120" rx="5" fill="#fa565a"/><path d="M0,0H122.581a0,0,0,0,1,0,0V83.452a3,3,0,0,1-3,3H3a3,3,0,0,1-3-3V0A0,0,0,0,1,0,0Z" transform="translate(6.452 27.097)" fill="#fff"/><rect width="122.581" height="6.452" transform="translate(6.452 27.097)" fill="#f0f7fd"/><circle cx="3.871" cy="3.871" r="3.871" transform="translate(12.903 10.323)" fill="#fff"/><circle cx="3.871" cy="3.871" r="3.871" transform="translate(24.516 10.323)" fill="#fff"/><circle cx="3.871" cy="3.871" r="3.871" transform="translate(36.129 10.323)" fill="#fff"/><rect width="65.806" height="7.742" rx="3.871" transform="translate(56.774 10.323)" fill="#ed5155"/><path d="M34.671,3H4.929A4.929,4.929,0,0,0,0,7.929V37.671A4.929,4.929,0,0,0,4.929,42.6H34.671A4.929,4.929,0,0,0,39.6,37.671V7.929A4.929,4.929,0,0,0,34.671,3ZM54.2,6.888l-11.3,7.8V30.917L54.2,38.7a3.307,3.307,0,0,0,5.2-2.661V9.549A3.308,3.308,0,0,0,54.2,6.888Z" transform="translate(38.424 47.661)" fill="#f18f0e"/></g></svg>