<svg xmlns="http://www.w3.org/2000/svg" xmlns:xlink="http://www.w3.org/1999/xlink" width="170.581" height="146" viewBox="0 0 170.581 146"><defs><filter id="a" x="0" y="37.355" width="170.581" height="108.645" filterUnits="userSpaceOnUse"><feOffset dy="2" input="SourceAlpha"/><feGaussianBlur stdDeviation="8" result="b"/><feFlood flood-opacity="0.4"/><feComposite operator="in" in2="b"/><feComposite in="SourceGraphic"/></filter></defs><g transform="translate(17.548)"><g transform="matrix(1, 0, 0, 1, -17.55, 0)" filter="url(#a)"><rect width="122.581" height="60.645" rx="6" transform="translate(24 59.35)" fill="#fa565a"/></g><rect width="135.484" height="120" rx="5" fill="#fa565a"/><path d="M0,0H122.581a0,0,0,0,1,0,0V83.452a3,3,0,0,1-3,3H3a3,3,0,0,1-3-3V0A0,0,0,0,1,0,0Z" transform="translate(6.452 27.097)" fill="#fff"/><rect width="122.581" height="6.452" transform="translate(6.452 27.097)" fill="#f0f7fd"/><circle cx="3.871" cy="3.871" r="3.871" transform="translate(12.903 10.323)" fill="#fff"/><circle cx="3.871" cy="3.871" r="3.871" transform="translate(24.516 10.323)" fill="#fff"/><circle cx="3.871" cy="3.871" r="3.871" transform="translate(36.129 10.323)" fill="#fff"/><rect width="65.806" height="7.742" rx="3.871" transform="translate(56.774 10.323)" fill="#ed5155"/><path d="M29.493,1.5A29.477,29.477,0,0,0,0,30.993v5.53a3.687,3.687,0,0,0,2.038,3.3l1.657.828A12.9,12.9,0,0,0,16.59,53.113h2.765a2.765,2.765,0,0,0,2.765-2.765V30.071a2.765,2.765,0,0,0-2.765-2.765H16.59a12.863,12.863,0,0,0-9.217,3.874v-.187a22.12,22.12,0,1,1,44.24,0v.187A12.863,12.863,0,0,0,42.4,27.306H39.631a2.765,2.765,0,0,0-2.765,2.765V50.348a2.765,2.765,0,0,0,2.765,2.765H42.4A12.9,12.9,0,0,0,55.291,40.649l1.657-.828a3.687,3.687,0,0,0,2.038-3.3v-5.53A29.477,29.477,0,0,0,29.493,1.5Z" transform="translate(38.839 43.355)" fill="#f18f0e"/></g></svg>
